<svg width="249" height="48" viewBox="0 0 249 48" fill="none" xmlns="http://www.w3.org/2000/svg">
<path d="M0 24C0 10.7452 10.7452 0 24 0H225C238.255 0 249 10.7452 249 24C249 37.2548 238.255 48 225 48H24C10.7452 48 0 37.2548 0 24Z" fill="#202020"/>
<path d="M56.4766 23.9297C55.1901 23.5599 54.2526 23.1068 53.6641 22.5703C53.0807 22.0286 52.7891 21.362 52.7891 20.5703C52.7891 19.6745 53.1458 18.9349 53.8594 18.3516C54.5781 17.763 55.5104 17.4688 56.6562 17.4688C57.4375 17.4688 58.1328 17.6198 58.7422 17.9219C59.3568 18.224 59.8307 18.6406 60.1641 19.1719C60.5026 19.7031 60.6719 20.2839 60.6719 20.9141H59.1641C59.1641 20.2266 58.9453 19.6875 58.5078 19.2969C58.0703 18.901 57.4531 18.7031 56.6562 18.7031C55.9167 18.7031 55.3385 18.8672 54.9219 19.1953C54.5104 19.5182 54.3047 19.9688 54.3047 20.5469C54.3047 21.0104 54.5 21.4036 54.8906 21.7266C55.2865 22.0443 55.9557 22.3359 56.8984 22.6016C57.8464 22.8672 58.5859 23.1615 59.1172 23.4844C59.6536 23.8021 60.0495 24.1745 60.3047 24.6016C60.5651 25.0286 60.6953 25.5312 60.6953 26.1094C60.6953 27.0312 60.3359 27.7708 59.6172 28.3281C58.8984 28.8802 57.9375 29.1562 56.7344 29.1562C55.9531 29.1562 55.224 29.0078 54.5469 28.7109C53.8698 28.4089 53.3464 27.9974 52.9766 27.4766C52.612 26.9557 52.4297 26.3646 52.4297 25.7031H53.9375C53.9375 26.3906 54.1901 26.9349 54.6953 27.3359C55.2057 27.7318 55.8854 27.9297 56.7344 27.9297C57.526 27.9297 58.1328 27.7682 58.5547 27.4453C58.9766 27.1224 59.1875 26.6823 59.1875 26.125C59.1875 25.5677 58.9922 25.138 58.6016 24.8359C58.2109 24.5286 57.5026 24.2266 56.4766 23.9297ZM63.8438 21.5703C64.4844 20.7839 65.3177 20.3906 66.3438 20.3906C68.1302 20.3906 69.0312 21.3984 69.0469 23.4141V29H67.6016V23.4062C67.5964 22.7969 67.4557 22.3464 67.1797 22.0547C66.9089 21.763 66.4844 21.6172 65.9062 21.6172C65.4375 21.6172 65.026 21.7422 64.6719 21.9922C64.3177 22.2422 64.0417 22.5703 63.8438 22.9766V29H62.3984V17H63.8438V21.5703ZM70.8281 24.6953C70.8281 23.8672 70.9896 23.1224 71.3125 22.4609C71.6406 21.7995 72.0938 21.2891 72.6719 20.9297C73.2552 20.5703 73.9193 20.3906 74.6641 20.3906C75.8151 20.3906 76.7448 20.7891 77.4531 21.5859C78.1667 22.3828 78.5234 23.4427 78.5234 24.7656V24.8672C78.5234 25.6901 78.3646 26.4297 78.0469 27.0859C77.7344 27.737 77.2839 28.2448 76.6953 28.6094C76.112 28.974 75.4401 29.1562 74.6797 29.1562C73.5339 29.1562 72.6042 28.7578 71.8906 27.9609C71.1823 27.1641 70.8281 26.1094 70.8281 24.7969V24.6953ZM72.2812 24.8672C72.2812 25.8047 72.4974 26.5573 72.9297 27.125C73.3672 27.6927 73.9505 27.9766 74.6797 27.9766C75.4141 27.9766 75.9974 27.6901 76.4297 27.1172C76.862 26.5391 77.0781 25.7318 77.0781 24.6953C77.0781 23.7682 76.8568 23.0182 76.4141 22.4453C75.9766 21.8672 75.3932 21.5781 74.6641 21.5781C73.9505 21.5781 73.375 21.862 72.9375 22.4297C72.5 22.9974 72.2812 23.8099 72.2812 24.8672ZM87.4766 24.8672C87.4766 26.1536 87.1823 27.1901 86.5938 27.9766C86.0052 28.763 85.2083 29.1562 84.2031 29.1562C83.1771 29.1562 82.3698 28.8307 81.7812 28.1797V32.25H80.3359V20.5469H81.6562L81.7266 21.4844C82.3151 20.7552 83.1328 20.3906 84.1797 20.3906C85.1953 20.3906 85.9974 20.7734 86.5859 21.5391C87.1797 22.3047 87.4766 23.3698 87.4766 24.7344V24.8672ZM86.0312 24.7031C86.0312 23.75 85.8281 22.9974 85.4219 22.4453C85.0156 21.8932 84.4583 21.6172 83.75 21.6172C82.875 21.6172 82.2188 22.0052 81.7812 22.7812V26.8203C82.2135 27.5911 82.875 27.9766 83.7656 27.9766C84.4583 27.9766 85.0078 27.7031 85.4141 27.1562C85.8255 26.6042 86.0312 25.7865 86.0312 24.7031ZM103.758 23.9141H93.3203V22.7344H103.758V23.9141ZM118.727 29H117.219L111.492 20.2344V29H109.984V17.625H111.492L117.234 26.4297V17.625H118.727V29ZM124.672 29.1562C123.526 29.1562 122.594 28.7812 121.875 28.0312C121.156 27.276 120.797 26.2682 120.797 25.0078V24.7422C120.797 23.9036 120.956 23.1562 121.273 22.5C121.596 21.8385 122.044 21.3229 122.617 20.9531C123.195 20.5781 123.82 20.3906 124.492 20.3906C125.591 20.3906 126.445 20.7526 127.055 21.4766C127.664 22.2005 127.969 23.237 127.969 24.5859V25.1875H122.242C122.263 26.0208 122.505 26.6953 122.969 27.2109C123.438 27.7214 124.031 27.9766 124.75 27.9766C125.26 27.9766 125.693 27.8724 126.047 27.6641C126.401 27.4557 126.711 27.1797 126.977 26.8359L127.859 27.5234C127.151 28.612 126.089 29.1562 124.672 29.1562ZM124.492 21.5781C123.909 21.5781 123.419 21.7917 123.023 22.2188C122.628 22.6406 122.383 23.2344 122.289 24H126.523V23.8906C126.482 23.1562 126.284 22.5885 125.93 22.1875C125.576 21.7812 125.096 21.5781 124.492 21.5781ZM137.133 27.0078L138.758 20.5469H140.203L137.742 29H136.57L134.516 22.5938L132.516 29H131.344L128.891 20.5469H130.328L131.992 26.875L133.961 20.5469H135.125L137.133 27.0078ZM152.156 26.0312H147.391L146.32 29H144.773L149.117 17.625H150.43L154.781 29H153.242L152.156 26.0312ZM147.844 24.7969H151.711L149.773 19.4766L147.844 24.7969ZM160.172 21.8438C159.953 21.8073 159.716 21.7891 159.461 21.7891C158.513 21.7891 157.87 22.1927 157.531 23V29H156.086V20.5469H157.492L157.516 21.5234C157.99 20.7682 158.661 20.3906 159.531 20.3906C159.812 20.3906 160.026 20.4271 160.172 20.5V21.8438ZM165.594 21.8438C165.375 21.8073 165.138 21.7891 164.883 21.7891C163.935 21.7891 163.292 22.1927 162.953 23V29H161.508V20.5469H162.914L162.938 21.5234C163.411 20.7682 164.083 20.3906 164.953 20.3906C165.234 20.3906 165.448 20.4271 165.594 20.5V21.8438ZM168.5 29H167.055V20.5469H168.5V29ZM166.938 18.3047C166.938 18.0703 167.008 17.8724 167.148 17.7109C167.294 17.5495 167.508 17.4688 167.789 17.4688C168.07 17.4688 168.284 17.5495 168.43 17.7109C168.576 17.8724 168.648 18.0703 168.648 18.3047C168.648 18.5391 168.576 18.7344 168.43 18.8906C168.284 19.0469 168.07 19.125 167.789 19.125C167.508 19.125 167.294 19.0469 167.148 18.8906C167.008 18.7344 166.938 18.5391 166.938 18.3047ZM173.609 27.0391L175.703 20.5469H177.18L174.148 29H173.047L169.984 20.5469H171.461L173.609 27.0391ZM183.664 29C183.581 28.8333 183.513 28.5365 183.461 28.1094C182.789 28.8073 181.987 29.1562 181.055 29.1562C180.221 29.1562 179.536 28.9219 179 28.4531C178.469 27.9792 178.203 27.3802 178.203 26.6562C178.203 25.776 178.536 25.0938 179.203 24.6094C179.875 24.1198 180.818 23.875 182.031 23.875H183.438V23.2109C183.438 22.7057 183.286 22.3047 182.984 22.0078C182.682 21.7057 182.237 21.5547 181.648 21.5547C181.133 21.5547 180.701 21.6849 180.352 21.9453C180.003 22.2057 179.828 22.5208 179.828 22.8906H178.375C178.375 22.4688 178.523 22.0625 178.82 21.6719C179.122 21.276 179.529 20.9635 180.039 20.7344C180.555 20.5052 181.12 20.3906 181.734 20.3906C182.708 20.3906 183.471 20.6354 184.023 21.125C184.576 21.6094 184.862 22.2786 184.883 23.1328V27.0234C184.883 27.7995 184.982 28.4167 185.18 28.875V29H183.664ZM181.266 27.8984C181.719 27.8984 182.148 27.7812 182.555 27.5469C182.961 27.3125 183.255 27.0078 183.438 26.6328V24.8984H182.305C180.534 24.8984 179.648 25.4167 179.648 26.4531C179.648 26.9062 179.799 27.2604 180.102 27.5156C180.404 27.7708 180.792 27.8984 181.266 27.8984ZM188.719 29H187.273V17H188.719V29ZM195.961 26.7578C195.961 26.3672 195.812 26.0651 195.516 25.8516C195.224 25.6328 194.711 25.4453 193.977 25.2891C193.247 25.1328 192.667 24.9453 192.234 24.7266C191.807 24.5078 191.49 24.2474 191.281 23.9453C191.078 23.6432 190.977 23.2839 190.977 22.8672C190.977 22.1745 191.268 21.5885 191.852 21.1094C192.44 20.6302 193.19 20.3906 194.102 20.3906C195.06 20.3906 195.836 20.638 196.43 21.1328C197.029 21.6276 197.328 22.2604 197.328 23.0312H195.875C195.875 22.6354 195.706 22.2943 195.367 22.0078C195.034 21.7214 194.612 21.5781 194.102 21.5781C193.576 21.5781 193.164 21.6927 192.867 21.9219C192.57 22.151 192.422 22.4505 192.422 22.8203C192.422 23.1693 192.56 23.4323 192.836 23.6094C193.112 23.7865 193.609 23.9557 194.328 24.1172C195.052 24.2786 195.638 24.4714 196.086 24.6953C196.534 24.9193 196.865 25.1901 197.078 25.5078C197.297 25.8203 197.406 26.2031 197.406 26.6562C197.406 27.4115 197.104 28.0182 196.5 28.4766C195.896 28.9297 195.112 29.1562 194.148 29.1562C193.471 29.1562 192.872 29.0365 192.352 28.7969C191.831 28.5573 191.422 28.224 191.125 27.7969C190.833 27.3646 190.688 26.8984 190.688 26.3984H192.133C192.159 26.8828 192.352 27.2682 192.711 27.5547C193.076 27.8359 193.555 27.9766 194.148 27.9766C194.695 27.9766 195.133 27.8672 195.461 27.6484C195.794 27.4245 195.961 27.1276 195.961 26.7578Z" fill="white"/>
</svg>
