<svg width="1440" height="36" viewBox="0 0 1440 36" fill="none" xmlns="http://www.w3.org/2000/svg">
<path d="M0 0H1440V36H0V0Z" fill="#000F9F"/>
<path d="M0 0H1440V36H0V0Z" fill="#000F9F"/>
<path d="M582.136 17.9185H578.258V22H577.039V12.7578H582.765V13.7607H578.258V16.9219H582.136V17.9185ZM587.445 16.1855C587.268 16.1559 587.075 16.1411 586.868 16.1411C586.097 16.1411 585.575 16.4691 585.3 17.125V22H584.125V15.1318H585.268L585.287 15.9253C585.672 15.3117 586.218 15.0049 586.925 15.0049C587.153 15.0049 587.327 15.0345 587.445 15.0938V16.1855ZM591.504 22.127C590.573 22.127 589.815 21.8223 589.231 21.2129C588.647 20.5993 588.355 19.7804 588.355 18.7563V18.5405C588.355 17.8592 588.485 17.252 588.743 16.7188C589.005 16.1813 589.369 15.7624 589.834 15.4619C590.304 15.1572 590.812 15.0049 591.358 15.0049C592.251 15.0049 592.945 15.299 593.44 15.8872C593.935 16.4754 594.183 17.3175 594.183 18.4136V18.9023H589.53C589.547 19.5794 589.743 20.1274 590.12 20.5464C590.501 20.9611 590.983 21.1685 591.567 21.1685C591.982 21.1685 592.333 21.0838 592.621 20.9146C592.909 20.7453 593.161 20.521 593.376 20.2417L594.094 20.8003C593.518 21.6847 592.655 22.127 591.504 22.127ZM591.358 15.9697C590.884 15.9697 590.486 16.1432 590.165 16.4902C589.843 16.833 589.644 17.3154 589.568 17.9375H593.008V17.8486C592.974 17.252 592.814 16.7907 592.526 16.4648C592.238 16.1348 591.849 15.9697 591.358 15.9697ZM598.647 22.127C597.716 22.127 596.959 21.8223 596.375 21.2129C595.791 20.5993 595.499 19.7804 595.499 18.7563V18.5405C595.499 17.8592 595.628 17.252 595.886 16.7188C596.149 16.1813 596.513 15.7624 596.978 15.4619C597.448 15.1572 597.956 15.0049 598.501 15.0049C599.394 15.0049 600.088 15.299 600.583 15.8872C601.079 16.4754 601.326 17.3175 601.326 18.4136V18.9023H596.673C596.69 19.5794 596.887 20.1274 597.264 20.5464C597.645 20.9611 598.127 21.1685 598.711 21.1685C599.126 21.1685 599.477 21.0838 599.765 20.9146C600.052 20.7453 600.304 20.521 600.52 20.2417L601.237 20.8003C600.662 21.6847 599.799 22.127 598.647 22.127ZM598.501 15.9697C598.028 15.9697 597.63 16.1432 597.308 16.4902C596.986 16.833 596.788 17.3154 596.711 17.9375H600.152V17.8486C600.118 17.252 599.957 16.7907 599.669 16.4648C599.382 16.1348 598.992 15.9697 598.501 15.9697ZM609.323 17.8804C608.278 17.5799 607.516 17.2118 607.038 16.7759C606.564 16.3358 606.327 15.7941 606.327 15.1509C606.327 14.423 606.617 13.8221 607.196 13.3481C607.78 12.87 608.538 12.6309 609.469 12.6309C610.104 12.6309 610.668 12.7536 611.164 12.999C611.663 13.2445 612.048 13.583 612.319 14.0146C612.594 14.4463 612.731 14.9181 612.731 15.4302H611.506C611.506 14.8716 611.329 14.4336 610.973 14.1162C610.618 13.7946 610.116 13.6338 609.469 13.6338C608.868 13.6338 608.398 13.7671 608.06 14.0337C607.725 14.2961 607.558 14.6621 607.558 15.1318C607.558 15.5085 607.717 15.828 608.034 16.0903C608.356 16.3485 608.9 16.5854 609.666 16.8013C610.436 17.0171 611.037 17.2562 611.468 17.5186C611.904 17.7767 612.226 18.0793 612.433 18.4263C612.645 18.7733 612.75 19.1816 612.75 19.6514C612.75 20.4004 612.458 21.0013 611.875 21.4541C611.291 21.9027 610.51 22.127 609.532 22.127C608.897 22.127 608.305 22.0063 607.755 21.7651C607.205 21.5197 606.779 21.1854 606.479 20.7622C606.183 20.339 606.035 19.8587 606.035 19.3213H607.26C607.26 19.8799 607.465 20.3221 607.875 20.6479C608.29 20.9696 608.842 21.1304 609.532 21.1304C610.175 21.1304 610.668 20.9992 611.011 20.7368C611.354 20.4744 611.525 20.1169 611.525 19.6641C611.525 19.2113 611.367 18.8621 611.049 18.6167C610.732 18.367 610.156 18.1216 609.323 17.8804ZM615.559 15.9634C616.079 15.3244 616.756 15.0049 617.59 15.0049C619.041 15.0049 619.773 15.8237 619.786 17.4614V22H618.612V17.4551C618.608 16.96 618.493 16.5939 618.269 16.3569C618.049 16.12 617.704 16.0015 617.234 16.0015C616.854 16.0015 616.519 16.103 616.231 16.3062C615.944 16.5093 615.719 16.7759 615.559 17.106V22H614.384V12.25H615.559V15.9634ZM623.07 22H621.896V15.1318H623.07V22ZM621.801 13.3101C621.801 13.1196 621.858 12.9588 621.972 12.8276C622.091 12.6965 622.264 12.6309 622.493 12.6309C622.721 12.6309 622.895 12.6965 623.013 12.8276C623.132 12.9588 623.191 13.1196 623.191 13.3101C623.191 13.5005 623.132 13.6592 623.013 13.7861C622.895 13.9131 622.721 13.9766 622.493 13.9766C622.264 13.9766 622.091 13.9131 621.972 13.7861C621.858 13.6592 621.801 13.5005 621.801 13.3101ZM631.007 18.6421C631.007 19.6873 630.768 20.5295 630.29 21.1685C629.812 21.8075 629.164 22.127 628.348 22.127C627.514 22.127 626.858 21.8625 626.38 21.3335V24.6406H625.206V15.1318H626.278L626.335 15.8936C626.814 15.3011 627.478 15.0049 628.329 15.0049C629.154 15.0049 629.806 15.3159 630.284 15.938C630.766 16.5601 631.007 17.4255 631.007 18.5342V18.6421ZM629.833 18.5088C629.833 17.7344 629.668 17.1229 629.338 16.6743C629.008 16.2257 628.555 16.0015 627.979 16.0015C627.269 16.0015 626.735 16.3167 626.38 16.9473V20.229C626.731 20.8553 627.269 21.1685 627.992 21.1685C628.555 21.1685 629.001 20.9463 629.332 20.502C629.666 20.0534 629.833 19.389 629.833 18.5088ZM638.557 18.6421C638.557 19.6873 638.318 20.5295 637.84 21.1685C637.362 21.8075 636.714 22.127 635.897 22.127C635.064 22.127 634.408 21.8625 633.93 21.3335V24.6406H632.755V15.1318H633.828L633.885 15.8936C634.363 15.3011 635.028 15.0049 635.878 15.0049C636.704 15.0049 637.355 15.3159 637.833 15.938C638.316 16.5601 638.557 17.4255 638.557 18.5342V18.6421ZM637.383 18.5088C637.383 17.7344 637.218 17.1229 636.888 16.6743C636.558 16.2257 636.105 16.0015 635.529 16.0015C634.818 16.0015 634.285 16.3167 633.93 16.9473V20.229C634.281 20.8553 634.818 21.1685 635.542 21.1685C636.105 21.1685 636.551 20.9463 636.881 20.502C637.216 20.0534 637.383 19.389 637.383 18.5088ZM641.581 22H640.407V15.1318H641.581V22ZM640.312 13.3101C640.312 13.1196 640.369 12.9588 640.483 12.8276C640.601 12.6965 640.775 12.6309 641.003 12.6309C641.232 12.6309 641.405 12.6965 641.524 12.8276C641.642 12.9588 641.702 13.1196 641.702 13.3101C641.702 13.5005 641.642 13.6592 641.524 13.7861C641.405 13.9131 641.232 13.9766 641.003 13.9766C640.775 13.9766 640.601 13.9131 640.483 13.7861C640.369 13.6592 640.312 13.5005 640.312 13.3101ZM644.827 15.1318L644.865 15.9951C645.39 15.335 646.076 15.0049 646.922 15.0049C648.373 15.0049 649.105 15.8237 649.118 17.4614V22H647.944V17.4551C647.94 16.96 647.825 16.5939 647.601 16.3569C647.381 16.12 647.036 16.0015 646.566 16.0015C646.186 16.0015 645.851 16.103 645.563 16.3062C645.276 16.5093 645.051 16.7759 644.891 17.106V22H643.716V15.1318H644.827ZM650.86 18.5088C650.86 17.4382 651.107 16.5876 651.603 15.957C652.098 15.3223 652.754 15.0049 653.57 15.0049C654.408 15.0049 655.062 15.3011 655.532 15.8936L655.589 15.1318H656.662V21.835C656.662 22.7236 656.397 23.424 655.868 23.936C655.343 24.4481 654.637 24.7041 653.748 24.7041C653.253 24.7041 652.768 24.5983 652.294 24.3867C651.82 24.1751 651.459 23.8853 651.209 23.5171L651.818 22.8125C652.322 23.4346 652.938 23.7456 653.666 23.7456C654.237 23.7456 654.681 23.5848 654.999 23.2632C655.32 22.9416 655.481 22.4888 655.481 21.9048V21.3145C655.011 21.8561 654.37 22.127 653.558 22.127C652.754 22.127 652.102 21.8032 651.603 21.1558C651.107 20.5083 650.86 19.626 650.86 18.5088ZM652.041 18.6421C652.041 19.4165 652.199 20.0259 652.517 20.4702C652.834 20.9103 653.278 21.1304 653.85 21.1304C654.59 21.1304 655.134 20.7939 655.481 20.1211V16.9854C655.121 16.3294 654.582 16.0015 653.862 16.0015C653.291 16.0015 652.845 16.2236 652.523 16.668C652.201 17.1123 652.041 17.7703 652.041 18.6421ZM661.853 18.5024C661.853 17.8296 661.984 17.2244 662.246 16.687C662.513 16.1496 662.881 15.7349 663.351 15.4429C663.825 15.1509 664.364 15.0049 664.969 15.0049C665.904 15.0049 666.66 15.3286 667.235 15.9761C667.815 16.6235 668.105 17.4847 668.105 18.5596V18.6421C668.105 19.3107 667.976 19.9116 667.718 20.4448C667.464 20.9738 667.098 21.3864 666.62 21.6826C666.146 21.9788 665.6 22.127 664.982 22.127C664.051 22.127 663.296 21.8032 662.716 21.1558C662.14 20.5083 661.853 19.6514 661.853 18.585V18.5024ZM663.033 18.6421C663.033 19.4038 663.209 20.0153 663.56 20.4766C663.916 20.9378 664.389 21.1685 664.982 21.1685C665.579 21.1685 666.053 20.9357 666.404 20.4702C666.755 20.0005 666.931 19.3446 666.931 18.5024C666.931 17.7492 666.751 17.1398 666.391 16.6743C666.036 16.2046 665.562 15.9697 664.969 15.9697C664.389 15.9697 663.922 16.2004 663.566 16.6616C663.211 17.1229 663.033 17.783 663.033 18.6421ZM670.938 15.1318L670.977 15.9951C671.501 15.335 672.187 15.0049 673.033 15.0049C674.485 15.0049 675.217 15.8237 675.229 17.4614V22H674.055V17.4551C674.051 16.96 673.937 16.5939 673.712 16.3569C673.492 16.12 673.147 16.0015 672.678 16.0015C672.297 16.0015 671.963 16.103 671.675 16.3062C671.387 16.5093 671.163 16.7759 671.002 17.106V22H669.828V15.1318H670.938ZM680.414 18.5024C680.414 17.8296 680.545 17.2244 680.808 16.687C681.074 16.1496 681.442 15.7349 681.912 15.4429C682.386 15.1509 682.926 15.0049 683.531 15.0049C684.466 15.0049 685.221 15.3286 685.797 15.9761C686.377 16.6235 686.667 17.4847 686.667 18.5596V18.6421C686.667 19.3107 686.537 19.9116 686.279 20.4448C686.025 20.9738 685.659 21.3864 685.181 21.6826C684.707 21.9788 684.161 22.127 683.543 22.127C682.612 22.127 681.857 21.8032 681.277 21.1558C680.702 20.5083 680.414 19.6514 680.414 18.585V18.5024ZM681.595 18.6421C681.595 19.4038 681.77 20.0153 682.122 20.4766C682.477 20.9378 682.951 21.1685 683.543 21.1685C684.14 21.1685 684.614 20.9357 684.965 20.4702C685.317 20.0005 685.492 19.3446 685.492 18.5024C685.492 17.7492 685.312 17.1398 684.953 16.6743C684.597 16.2046 684.123 15.9697 683.531 15.9697C682.951 15.9697 682.483 16.2004 682.128 16.6616C681.772 17.1229 681.595 17.783 681.595 18.6421ZM691.709 16.1855C691.531 16.1559 691.339 16.1411 691.131 16.1411C690.361 16.1411 689.839 16.4691 689.563 17.125V22H688.389V15.1318H689.532L689.551 15.9253C689.936 15.3117 690.482 15.0049 691.188 15.0049C691.417 15.0049 691.59 15.0345 691.709 15.0938V16.1855ZM692.632 18.5088C692.632 17.4551 692.882 16.6087 693.381 15.9697C693.88 15.3265 694.534 15.0049 695.342 15.0049C696.146 15.0049 696.783 15.2799 697.253 15.8301V12.25H698.427V22H697.348L697.291 21.2637C696.821 21.8392 696.167 22.127 695.33 22.127C694.534 22.127 693.884 21.8011 693.381 21.1494C692.882 20.4977 692.632 19.6471 692.632 18.5977V18.5088ZM693.806 18.6421C693.806 19.4207 693.967 20.0301 694.289 20.4702C694.61 20.9103 695.055 21.1304 695.622 21.1304C696.366 21.1304 696.91 20.7961 697.253 20.1274V16.9727C696.902 16.3252 696.362 16.0015 695.634 16.0015C695.059 16.0015 694.61 16.2236 694.289 16.668C693.967 17.1123 693.806 17.7703 693.806 18.6421ZM703.355 22.127C702.424 22.127 701.667 21.8223 701.083 21.2129C700.499 20.5993 700.207 19.7804 700.207 18.7563V18.5405C700.207 17.8592 700.336 17.252 700.594 16.7188C700.857 16.1813 701.221 15.7624 701.686 15.4619C702.156 15.1572 702.664 15.0049 703.209 15.0049C704.102 15.0049 704.796 15.299 705.292 15.8872C705.787 16.4754 706.034 17.3175 706.034 18.4136V18.9023H701.381C701.398 19.5794 701.595 20.1274 701.972 20.5464C702.353 20.9611 702.835 21.1685 703.419 21.1685C703.834 21.1685 704.185 21.0838 704.473 20.9146C704.76 20.7453 705.012 20.521 705.228 20.2417L705.945 20.8003C705.37 21.6847 704.507 22.127 703.355 22.127ZM703.209 15.9697C702.736 15.9697 702.338 16.1432 702.016 16.4902C701.694 16.833 701.496 17.3154 701.419 17.9375H704.86V17.8486C704.826 17.252 704.665 16.7907 704.377 16.4648C704.09 16.1348 703.7 15.9697 703.209 15.9697ZM710.969 16.1855C710.791 16.1559 710.598 16.1411 710.391 16.1411C709.621 16.1411 709.098 16.4691 708.823 17.125V22H707.649V15.1318H708.792L708.811 15.9253C709.196 15.3117 709.742 15.0049 710.448 15.0049C710.677 15.0049 710.85 15.0345 710.969 15.0938V16.1855ZM716.303 20.1782C716.303 19.8608 716.183 19.6154 715.941 19.4419C715.704 19.2642 715.288 19.1118 714.691 18.9849C714.098 18.8579 713.627 18.7056 713.275 18.5278C712.928 18.3501 712.67 18.1385 712.501 17.8931C712.336 17.6476 712.253 17.3556 712.253 17.0171C712.253 16.4543 712.49 15.9782 712.964 15.5889C713.443 15.1995 714.052 15.0049 714.792 15.0049C715.571 15.0049 716.202 15.2059 716.684 15.6079C717.171 16.0099 717.414 16.5241 717.414 17.1504H716.233C716.233 16.8288 716.096 16.5516 715.821 16.3188C715.55 16.0861 715.207 15.9697 714.792 15.9697C714.365 15.9697 714.031 16.0628 713.79 16.249C713.548 16.4352 713.428 16.6785 713.428 16.979C713.428 17.2625 713.54 17.4762 713.764 17.6201C713.988 17.764 714.393 17.9015 714.977 18.0327C715.565 18.1639 716.041 18.3205 716.405 18.5024C716.769 18.6844 717.037 18.9045 717.211 19.1626C717.389 19.4165 717.478 19.7275 717.478 20.0957C717.478 20.7093 717.232 21.2023 716.741 21.5747C716.25 21.9429 715.613 22.127 714.831 22.127C714.28 22.127 713.794 22.0296 713.371 21.835C712.947 21.6403 712.615 21.3695 712.374 21.0225C712.137 20.6712 712.019 20.2925 712.019 19.8862H713.193C713.214 20.2798 713.371 20.5929 713.663 20.8257C713.959 21.0542 714.348 21.1685 714.831 21.1685C715.275 21.1685 715.63 21.0796 715.897 20.9019C716.168 20.7199 716.303 20.4787 716.303 20.1782ZM722.421 18.5024C722.421 17.8296 722.552 17.2244 722.814 16.687C723.081 16.1496 723.449 15.7349 723.919 15.4429C724.393 15.1509 724.932 15.0049 725.538 15.0049C726.473 15.0049 727.228 15.3286 727.804 15.9761C728.383 16.6235 728.673 17.4847 728.673 18.5596V18.6421C728.673 19.3107 728.544 19.9116 728.286 20.4448C728.032 20.9738 727.666 21.3864 727.188 21.6826C726.714 21.9788 726.168 22.127 725.55 22.127C724.619 22.127 723.864 21.8032 723.284 21.1558C722.709 20.5083 722.421 19.6514 722.421 18.585V18.5024ZM723.602 18.6421C723.602 19.4038 723.777 20.0153 724.128 20.4766C724.484 20.9378 724.958 21.1685 725.55 21.1685C726.147 21.1685 726.621 20.9357 726.972 20.4702C727.323 20.0005 727.499 19.3446 727.499 18.5024C727.499 17.7492 727.319 17.1398 726.959 16.6743C726.604 16.2046 726.13 15.9697 725.538 15.9697C724.958 15.9697 724.49 16.2004 724.135 16.6616C723.779 17.1229 723.602 17.783 723.602 18.6421ZM732.561 20.4067L734.262 15.1318H735.461L732.999 22H732.104L729.615 15.1318H730.815L732.561 20.4067ZM739.603 22.127C738.672 22.127 737.914 21.8223 737.33 21.2129C736.746 20.5993 736.454 19.7804 736.454 18.7563V18.5405C736.454 17.8592 736.583 17.252 736.841 16.7188C737.104 16.1813 737.468 15.7624 737.933 15.4619C738.403 15.1572 738.911 15.0049 739.457 15.0049C740.349 15.0049 741.043 15.299 741.539 15.8872C742.034 16.4754 742.281 17.3175 742.281 18.4136V18.9023H737.628C737.645 19.5794 737.842 20.1274 738.219 20.5464C738.6 20.9611 739.082 21.1685 739.666 21.1685C740.081 21.1685 740.432 21.0838 740.72 20.9146C741.007 20.7453 741.259 20.521 741.475 20.2417L742.192 20.8003C741.617 21.6847 740.754 22.127 739.603 22.127ZM739.457 15.9697C738.983 15.9697 738.585 16.1432 738.263 16.4902C737.942 16.833 737.743 17.3154 737.667 17.9375H741.107V17.8486C741.073 17.252 740.912 16.7907 740.625 16.4648C740.337 16.1348 739.947 15.9697 739.457 15.9697ZM747.216 16.1855C747.038 16.1559 746.846 16.1411 746.638 16.1411C745.868 16.1411 745.345 16.4691 745.07 17.125V22H743.896V15.1318H745.039L745.058 15.9253C745.443 15.3117 745.989 15.0049 746.695 15.0049C746.924 15.0049 747.097 15.0345 747.216 15.0938V16.1855ZM756.571 19.6196C756.571 19.2303 756.433 18.9023 756.158 18.6357C755.887 18.3691 755.428 18.1279 754.781 17.9121C753.879 17.637 753.221 17.2795 752.807 16.8394C752.396 16.395 752.191 15.8322 752.191 15.1509C752.191 14.4569 752.392 13.8877 752.794 13.4434C753.2 12.999 753.757 12.7345 754.463 12.6499V11.2598H755.409V12.6562C756.12 12.7536 756.672 13.0519 757.066 13.5513C757.464 14.0506 757.663 14.734 757.663 15.6016H756.495C756.495 15.0049 756.353 14.5309 756.069 14.1797C755.786 13.8285 755.403 13.6528 754.92 13.6528C754.417 13.6528 754.032 13.784 753.765 14.0464C753.499 14.3045 753.365 14.6663 753.365 15.1318C753.365 15.5635 753.505 15.9084 753.784 16.1665C754.068 16.4204 754.531 16.6532 755.174 16.8647C755.822 17.0721 756.325 17.3027 756.685 17.5566C757.049 17.8063 757.316 18.0983 757.485 18.4326C757.658 18.7669 757.745 19.1584 757.745 19.6069C757.745 20.3221 757.529 20.8976 757.098 21.3335C756.67 21.7694 756.069 22.0275 755.295 22.1079V23.3203H754.355V22.1079C753.568 22.036 752.951 21.7567 752.502 21.27C752.058 20.7791 751.835 20.1147 751.835 19.2769H753.01C753.01 19.8651 753.164 20.3179 753.473 20.6353C753.782 20.9526 754.22 21.1113 754.787 21.1113C755.341 21.1113 755.777 20.978 756.095 20.7114C756.412 20.4448 756.571 20.0809 756.571 19.6196ZM765.422 13.418L761.594 22H760.363L764.178 13.7227H759.176V12.7578H765.422V13.418ZM767.544 17.3662L768.014 12.7578H772.75V13.8433H769.011L768.731 16.3633C769.184 16.0967 769.698 15.9634 770.274 15.9634C771.116 15.9634 771.785 16.2427 772.28 16.8013C772.775 17.3556 773.022 18.1068 773.022 19.0547C773.022 20.0068 772.764 20.758 772.248 21.3081C771.736 21.854 771.019 22.127 770.096 22.127C769.279 22.127 768.613 21.9006 768.097 21.4478C767.58 20.995 767.286 20.3687 767.214 19.5688H768.325C768.397 20.0978 768.585 20.4977 768.89 20.7686C769.195 21.0352 769.597 21.1685 770.096 21.1685C770.642 21.1685 771.069 20.9823 771.378 20.6099C771.692 20.2375 771.848 19.7233 771.848 19.0674C771.848 18.4495 771.679 17.9544 771.34 17.582C771.006 17.2054 770.56 17.0171 770.001 17.0171C769.489 17.0171 769.087 17.1292 768.795 17.3535L768.484 17.6074L767.544 17.3662ZM781.514 17.0425H784.091V18.1533H781.514V21.0732H780.333V18.1533H777.756V17.0425H780.333V14.3447H781.514V17.0425ZM794.532 17.9185H790.653V22H789.435V12.7578H795.16V13.7607H790.653V16.9219H794.532V17.9185ZM799.841 16.1855C799.663 16.1559 799.471 16.1411 799.263 16.1411C798.493 16.1411 797.97 16.4691 797.695 17.125V22H796.521V15.1318H797.664L797.683 15.9253C798.068 15.3117 798.614 15.0049 799.32 15.0049C799.549 15.0049 799.722 15.0345 799.841 15.0938V16.1855ZM803.899 22.127C802.968 22.127 802.211 21.8223 801.627 21.2129C801.043 20.5993 800.751 19.7804 800.751 18.7563V18.5405C800.751 17.8592 800.88 17.252 801.138 16.7188C801.401 16.1813 801.764 15.7624 802.23 15.4619C802.7 15.1572 803.208 15.0049 803.753 15.0049C804.646 15.0049 805.34 15.299 805.835 15.8872C806.331 16.4754 806.578 17.3175 806.578 18.4136V18.9023H801.925C801.942 19.5794 802.139 20.1274 802.516 20.5464C802.896 20.9611 803.379 21.1685 803.963 21.1685C804.378 21.1685 804.729 21.0838 805.017 20.9146C805.304 20.7453 805.556 20.521 805.772 20.2417L806.489 20.8003C805.914 21.6847 805.05 22.127 803.899 22.127ZM803.753 15.9697C803.279 15.9697 802.882 16.1432 802.56 16.4902C802.238 16.833 802.04 17.3154 801.963 17.9375H805.404V17.8486C805.37 17.252 805.209 16.7907 804.921 16.4648C804.634 16.1348 804.244 15.9697 803.753 15.9697ZM811.043 22.127C810.112 22.127 809.354 21.8223 808.771 21.2129C808.187 20.5993 807.895 19.7804 807.895 18.7563V18.5405C807.895 17.8592 808.024 17.252 808.282 16.7188C808.544 16.1813 808.908 15.7624 809.374 15.4619C809.843 15.1572 810.351 15.0049 810.897 15.0049C811.79 15.0049 812.484 15.299 812.979 15.8872C813.474 16.4754 813.722 17.3175 813.722 18.4136V18.9023H809.069C809.086 19.5794 809.283 20.1274 809.659 20.5464C810.04 20.9611 810.522 21.1685 811.106 21.1685C811.521 21.1685 811.872 21.0838 812.16 20.9146C812.448 20.7453 812.7 20.521 812.916 20.2417L813.633 20.8003C813.057 21.6847 812.194 22.127 811.043 22.127ZM810.897 15.9697C810.423 15.9697 810.025 16.1432 809.704 16.4902C809.382 16.833 809.183 17.3154 809.107 17.9375H812.547V17.8486C812.514 17.252 812.353 16.7907 812.065 16.4648C811.777 16.1348 811.388 15.9697 810.897 15.9697ZM822.385 18.2612H820.214V22H818.989V12.7578H822.048C823.089 12.7578 823.889 12.9948 824.448 13.4688C825.011 13.9427 825.292 14.6325 825.292 15.5381C825.292 16.1136 825.135 16.6151 824.822 17.0425C824.513 17.4699 824.082 17.7894 823.527 18.001L825.698 21.9238V22H824.391L822.385 18.2612ZM820.214 17.2646H822.086C822.692 17.2646 823.172 17.1081 823.527 16.7949C823.887 16.4818 824.067 16.0628 824.067 15.5381C824.067 14.9668 823.896 14.5288 823.553 14.2241C823.214 13.9194 822.723 13.765 822.08 13.7607H820.214V17.2646ZM829.922 22.127C828.991 22.127 828.233 21.8223 827.649 21.2129C827.065 20.5993 826.773 19.7804 826.773 18.7563V18.5405C826.773 17.8592 826.903 17.252 827.161 16.7188C827.423 16.1813 827.787 15.7624 828.252 15.4619C828.722 15.1572 829.23 15.0049 829.776 15.0049C830.669 15.0049 831.363 15.299 831.858 15.8872C832.353 16.4754 832.601 17.3175 832.601 18.4136V18.9023H827.948C827.965 19.5794 828.161 20.1274 828.538 20.5464C828.919 20.9611 829.401 21.1685 829.985 21.1685C830.4 21.1685 830.751 21.0838 831.039 20.9146C831.327 20.7453 831.579 20.521 831.794 20.2417L832.512 20.8003C831.936 21.6847 831.073 22.127 829.922 22.127ZM829.776 15.9697C829.302 15.9697 828.904 16.1432 828.583 16.4902C828.261 16.833 828.062 17.3154 827.986 17.9375H831.426V17.8486C831.392 17.252 831.232 16.7907 830.944 16.4648C830.656 16.1348 830.267 15.9697 829.776 15.9697ZM835.809 13.4688V15.1318H837.091V16.0396H835.809V20.2988C835.809 20.5739 835.866 20.7812 835.98 20.9209C836.094 21.0563 836.289 21.124 836.564 21.124C836.699 21.124 836.886 21.0986 837.123 21.0479V22C836.814 22.0846 836.513 22.127 836.221 22.127C835.696 22.127 835.301 21.9683 835.034 21.6509C834.768 21.3335 834.634 20.8828 834.634 20.2988V16.0396H833.384V15.1318H834.634V13.4688H835.809ZM842.958 21.3208C842.501 21.8582 841.831 22.127 840.946 22.127C840.214 22.127 839.656 21.9154 839.271 21.4922C838.89 21.0648 838.697 20.4342 838.693 19.6006V15.1318H839.867V19.5688C839.867 20.6099 840.29 21.1304 841.137 21.1304C842.034 21.1304 842.631 20.7961 842.927 20.1274V15.1318H844.101V22H842.984L842.958 21.3208ZM849.461 16.1855C849.283 16.1559 849.091 16.1411 848.883 16.1411C848.113 16.1411 847.59 16.4691 847.315 17.125V22H846.141V15.1318H847.284L847.303 15.9253C847.688 15.3117 848.234 15.0049 848.94 15.0049C849.169 15.0049 849.342 15.0345 849.461 15.0938V16.1855ZM851.907 15.1318L851.945 15.9951C852.47 15.335 853.156 15.0049 854.002 15.0049C855.453 15.0049 856.186 15.8237 856.198 17.4614V22H855.024V17.4551C855.02 16.96 854.905 16.5939 854.681 16.3569C854.461 16.12 854.116 16.0015 853.646 16.0015C853.266 16.0015 852.931 16.103 852.644 16.3062C852.356 16.5093 852.132 16.7759 851.971 17.106V22H850.796V15.1318H851.907ZM862.218 20.1782C862.218 19.8608 862.098 19.6154 861.856 19.4419C861.619 19.2642 861.203 19.1118 860.606 18.9849C860.014 18.8579 859.542 18.7056 859.19 18.5278C858.843 18.3501 858.585 18.1385 858.416 17.8931C858.251 17.6476 858.168 17.3556 858.168 17.0171C858.168 16.4543 858.405 15.9782 858.879 15.5889C859.358 15.1995 859.967 15.0049 860.708 15.0049C861.486 15.0049 862.117 15.2059 862.599 15.6079C863.086 16.0099 863.329 16.5241 863.329 17.1504H862.148C862.148 16.8288 862.011 16.5516 861.736 16.3188C861.465 16.0861 861.122 15.9697 860.708 15.9697C860.28 15.9697 859.946 16.0628 859.705 16.249C859.463 16.4352 859.343 16.6785 859.343 16.979C859.343 17.2625 859.455 17.4762 859.679 17.6201C859.903 17.764 860.308 17.9015 860.892 18.0327C861.48 18.1639 861.956 18.3205 862.32 18.5024C862.684 18.6844 862.952 18.9045 863.126 19.1626C863.304 19.4165 863.393 19.7275 863.393 20.0957C863.393 20.7093 863.147 21.2023 862.656 21.5747C862.165 21.9429 861.528 22.127 860.746 22.127C860.195 22.127 859.709 22.0296 859.286 21.835C858.862 21.6403 858.53 21.3695 858.289 21.0225C858.052 20.6712 857.934 20.2925 857.934 19.8862H859.108C859.129 20.2798 859.286 20.5929 859.578 20.8257C859.874 21.0542 860.263 21.1685 860.746 21.1685C861.19 21.1685 861.545 21.0796 861.812 20.9019C862.083 20.7199 862.218 20.4787 862.218 20.1782Z" fill="white"/>
</svg>
