<svg width="34" height="18" viewBox="0 0 34 18" fill="none" xmlns="http://www.w3.org/2000/svg">
<g clip-path="url(#clip0_80_526)">
<path fill-rule="evenodd" clip-rule="evenodd" d="M19.5755 13.2997L20.9111 11.8023L24.2503 15.5458L22.9146 17.0432L19.5755 13.2997ZM19.5755 11.8023C17.3625 14.2832 13.7746 14.2832 11.5616 11.8023C9.34865 9.32129 9.34865 5.29883 11.5616 2.81785C13.7746 0.336874 17.3625 0.336874 19.5755 2.81785C21.7885 5.29883 21.7885 9.32129 19.5755 11.8023ZM18.2399 10.3049C19.7152 8.65088 19.7152 5.96924 18.2399 4.31525C16.7645 2.66127 14.3726 2.66127 12.8973 4.31525C11.422 5.96924 11.422 8.65088 12.8973 10.3049C14.3726 11.9588 16.7645 11.9588 18.2399 10.3049Z" fill="black"/>
</g>
<defs>
<clipPath id="clip0_80_526">
<rect width="34" height="18" fill="white"/>
</clipPath>
</defs>
</svg>
